<svg id="Logo" xmlns="http://www.w3.org/2000/svg" xmlns:xlink="http://www.w3.org/1999/xlink" width="322" height="54" viewBox="0 0 322 54">
  <defs>
    <clipPath id="clip-path">
      <rect id="Rectangle_520" data-name="Rectangle 520" width="322" height="54"/>
    </clipPath>
  </defs>
  <g id="vegasinsidercom-logo" clip-path="url(#clip-path)">
    <g id="vegasinsidercom-logo_1_" transform="translate(0 0.002)">
      <g id="Logo_1_" transform="translate(0 0)">
        <g id="Group_8_1_">
          <g id="Group_6_1_" transform="translate(102.251 8.057)">
            <g id="Path_49_1_" transform="translate(0 0.64)">
              <path id="Path_58" data-name="Path 58" d="M9.049,34.139H.01V.46H9.049Z" transform="translate(-0.01 -0.46)"/>
            </g>
            <g id="Path_50_1_" transform="translate(13.713 0.64)">
              <path id="Path_59" data-name="Path 59" d="M9.72,34.139V.46h8.629l4.533,11.823c.24.7.523,1.492.833,2.4s.65,1.947,1.031,3.126l.932,2.97c-.339-2.927-.579-5.428-.763-7.5s-.254-3.851-.254-5.258V.46h8.629V34.139H24.662L20.114,21.747c-.48-1.322-.9-2.572-1.285-3.723s-.72-2.259-1-3.3c.184,2.373.325,4.434.41,6.2s.127,3.3.127,4.618v8.6Z" transform="translate(-9.72 -0.46)"/>
            </g>
            <g id="Path_51_1_" transform="translate(41.111 0)">
              <path id="Path_60" data-name="Path 60" d="M29.247,33.49V22.918q2.669,3.666,5.762,3.666a2.813,2.813,0,0,0,1.907-.625A1.93,1.93,0,0,0,37.65,24.4a3.536,3.536,0,0,0-1.6-2.643L34.586,20.6a19.676,19.676,0,0,1-2.514-2.217,11.056,11.056,0,0,1-1.695-2.274,9.337,9.337,0,0,1-.946-2.416,10.854,10.854,0,0,1-.311-2.615,12.592,12.592,0,0,1,1.087-4.931,12.015,12.015,0,0,1,1.257-2.188A9.539,9.539,0,0,1,39.288.01a13.86,13.86,0,0,1,6.5,1.719V12.018A9.387,9.387,0,0,0,43.271,9.3,4.8,4.8,0,0,0,40.5,8.309a2.6,2.6,0,0,0-1.723.625,1.8,1.8,0,0,0-.692,1.421,3.587,3.587,0,0,0,1.836,2.686l1.426,1.066a13.953,13.953,0,0,1,4.1,4.249,10.084,10.084,0,0,1,1.257,5.1,11.535,11.535,0,0,1-3.008,8.2,9.976,9.976,0,0,1-7.626,3.226,18.458,18.458,0,0,1-6.821-1.393Z" transform="translate(-29.12 -0.01)"/>
            </g>
            <g id="Path_52_1_" transform="translate(62.253 0.64)">
              <path id="Path_61" data-name="Path 61" d="M53.129,34.139H44.09V.46h9.039Z" transform="translate(-44.09 -0.46)"/>
            </g>
            <g id="Path_53_1_" transform="translate(75.967 0.64)">
              <path id="Path_62" data-name="Path 62" d="M53.8,34.139V.46h7.8q6.694,0,10.423,3.624,4.894,4.732,4.9,13.244,0,8.384-4.138,12.932c-2.359,2.586-5.861,3.879-10.536,3.879ZM62.839,26c3.234-.156,4.858-2.97,4.858-8.413a13.729,13.729,0,0,0-1.243-6.366,3.756,3.756,0,0,0-3.333-2.359h-.282Z" transform="translate(-53.8 -0.46)"/>
            </g>
            <g id="Path_54_1_" transform="translate(102.941 0.64)">
              <path id="Path_63" data-name="Path 63" d="M72.9,34.139V.46H89.706V8.375H81.939v4.9H88.9v7.617H81.939v5.144h7.753v8.086Z" transform="translate(-72.9 -0.46)"/>
            </g>
            <g id="Path_55_1_" transform="translate(123.617 0.626)">
              <path id="Path_64" data-name="Path 64" d="M111.323,34.143H101.55L97.087,22.149a7.753,7.753,0,0,0-.226-.81c-.113-.341-.24-.739-.4-1.194l.071,2.231V34.157h-9V.45h9.25c4.081,0,7.118.81,9.152,2.416a10.657,10.657,0,0,1,3.856,8.811,8.463,8.463,0,0,1-5.183,8.441ZM96.564,16.053h.607a3.319,3.319,0,0,0,2.6-1.194,4.542,4.542,0,0,0,1.045-3.055c0-2.515-1.313-3.766-3.926-3.766h-.325Z" transform="translate(-87.54 -0.45)"/>
            </g>
          </g>
          <g id="tWQcDl.tif_1_">
            <g id="Group_7_1_">
              <g id="Path_56_1_" transform="translate(26.97 16.095)">
                <path id="Path_65" data-name="Path 65" d="M25.964,22.2a14.135,14.135,0,0,0-3.192,5.741c-.184.966.184,1.407,1.144,1.293a4.025,4.025,0,0,0,1.285-.355c1.652-.838,3.291-1.719,4.915-2.6A41.689,41.689,0,0,1,38.929,22.4a8.433,8.433,0,0,0,2.1-.583,9.454,9.454,0,0,0,1.554-1.549,39.735,39.735,0,0,1,11.2-7.887,12.709,12.709,0,0,1,2.853-.867,2.53,2.53,0,0,1,1.909.41A2.559,2.559,0,0,1,59.6,13.578a2.47,2.47,0,0,1,.014.853,3.931,3.931,0,0,1-.72,1.918.428.428,0,0,0,.014.6,1.351,1.351,0,0,1,.071,1.648c-.282.5-.607.966-.918,1.449l-2.486,3.894a1.536,1.536,0,0,0,.24-.071A19.2,19.2,0,0,1,60.452,22.2a1.72,1.72,0,0,0,.749-.426,40.366,40.366,0,0,1,12.711-9.208,15.909,15.909,0,0,1,3.234-1.037,2.426,2.426,0,0,1,2.881,1.862,3.029,3.029,0,0,1,.056.625,3.011,3.011,0,0,1-.523,1.961c-.169.256-.353.483-.551.767.847.952.311,1.8-.226,2.643-1.045,1.606-2.1,3.212-3.149,4.817a1.2,1.2,0,0,0-.184.384A20.573,20.573,0,0,1,82.5,21.948a9.637,9.637,0,0,1-.212-1.251,2.425,2.425,0,0,1,.593-1.705,15.15,15.15,0,0,1,3.615-2.956A32.511,32.511,0,0,1,97.312,11.6c1.525-.327,2.217.27,2.246,1.847a1.3,1.3,0,0,1-.9,1.393c-.636.256-1.271.526-1.921.753a4.354,4.354,0,0,0-2.9,2.558,1.186,1.186,0,0,1-.141.142l-.282-1.705h-.141A13.313,13.313,0,0,0,87.6,19.546c-.96.881-.847,1.535.41,1.862,1.342.341,2.726.554,4.081.81.353.071.706.128,1.059.213a1.99,1.99,0,0,1,1.525,1.08c0,.966-.113,1.748-.113,2.032A56.342,56.342,0,0,0,83.1,31.952c-1.568,1.037-3.093,2.117-4.632,3.183a.844.844,0,0,1-1.215-.014.668.668,0,0,1-.127-.171,5.143,5.143,0,0,1-.579-.966,1.973,1.973,0,0,1,.367-2.373,9.95,9.95,0,0,1,1.525-1.251,85.98,85.98,0,0,1,12.1-6.565c.113-.043.212-.1.452-.213-.41-.043-.678-.085-.96-.114s-.593-.043-.89-.071c-1.483-.1-2.952-.256-4.435-.27a11.026,11.026,0,0,0-2.274.384,13.664,13.664,0,0,0-8.686,6.3c-.833,1.265-1.554,2.6-2.316,3.908-.1.156-.169.327-.268.469a.971.971,0,0,1-1.328.369h0a3.042,3.042,0,0,1-1.582-3.482,20.279,20.279,0,0,1,1.229-2.842c.8-1.521,1.695-3.013,2.556-4.5a2.976,2.976,0,0,0,.311-.682c-.734.782-1.469,1.563-2.217,2.345A91.443,91.443,0,0,1,61.4,33.7a8,8,0,0,1-1.073.739,1.266,1.266,0,0,1-1.751-.213,5.868,5.868,0,0,1-1.624-3.581,6.752,6.752,0,0,1,.96-4.235c.381-.711.819-1.378,1.257-2.117a11.709,11.709,0,0,0-3.107,1.918,31.164,31.164,0,0,0-5.1,5.983q-5.169,7.247-10.352,14.481a25.8,25.8,0,0,1-1.681,2.046c-.678.753-1.13.711-1.751-.085a3.293,3.293,0,0,1-.494-3.482,16.939,16.939,0,0,1,3.164-4.9c1.4-1.563,2.923-3.013,4.392-4.519a5.568,5.568,0,0,0,.706-.81q3.792-5.862,7.57-11.738a.841.841,0,0,0,.141-.483c-.212.2-.438.384-.636.583-2.387,2.458-4.745,4.945-7.174,7.361-1.1,1.094-2.316,2.089-3.517,3.1a4.9,4.9,0,0,1-1.13.711,1.342,1.342,0,0,1-1.822-.369A6.106,6.106,0,0,1,36.8,30.289a5.943,5.943,0,0,1,.692-3.183c.48-.952,1.059-1.847,1.6-2.771a1.061,1.061,0,0,0,.169-.412c-.48.185-.974.355-1.441.54A28.036,28.036,0,0,0,30.61,29c-1.822,1.521-3.573,3.126-5.338,4.7a2.46,2.46,0,0,1-2.457.838,1.452,1.452,0,0,1-.565-.256,7.372,7.372,0,0,1-3.121-4.732,6.635,6.635,0,0,1,.452-3.1,20.48,20.48,0,0,1,3.841-6.423,30.534,30.534,0,0,1,10.437-7.958,11.566,11.566,0,0,1,1.907-.639,2.066,2.066,0,0,1,2.005.526A4.3,4.3,0,0,1,38.9,17a9.848,9.848,0,0,1-1.991,2.927,19.894,19.894,0,0,1-4.8,3.894,5.571,5.571,0,0,1-2.415.782,3.029,3.029,0,0,1-2.387-.938A10.219,10.219,0,0,1,25.964,22.2Zm15.323,6.352c.734-.284,1.483-.526,2.189-.881a31.147,31.147,0,0,0,9.378-7.247A38.426,38.426,0,0,0,55.283,17.2a.623.623,0,0,0,.042-.568.617.617,0,0,0-.537-.142,12.537,12.537,0,0,0-1.737.6,29.53,29.53,0,0,0-8.163,5.656,22.078,22.078,0,0,0-3.63,4.235,4.353,4.353,0,0,0-.466.924c-.141.412.014.583.494.654ZM61.4,28.527a1.332,1.332,0,0,0,.325-.071c.551-.2,1.1-.369,1.638-.611a27.924,27.924,0,0,0,8.121-5.812c1.243-1.236,2.359-2.6,3.5-3.936a2.887,2.887,0,0,0,.537-.981c.169-.469-.071-.739-.551-.654a3.294,3.294,0,0,0-.946.284c-1.469.767-2.98,1.492-4.364,2.373a28.791,28.791,0,0,0-8.078,7.688A5.319,5.319,0,0,0,60.96,28c-.155.355-.014.512.438.526Zm-34.177-7.7c.72,1.222,1.328,1.464,2.613,1.052a5.94,5.94,0,0,0,1.073-.455,15.34,15.34,0,0,0,4.774-4.178,3.735,3.735,0,0,0,.48-.909c.127-.341-.042-.583-.41-.554a4.085,4.085,0,0,0-1.172.227,25.212,25.212,0,0,0-7.358,4.817Z" transform="translate(-19.1 -11.357)" fill="#fcc138"/>
              </g>
              <g id="Path_57_1_">
                <path id="Path_66" data-name="Path 66" d="M10.478,6.769A44.392,44.392,0,0,1,1.03,9.384c-.523.1-.918-.057-.989-.369a.588.588,0,0,1,.325-.753c.41-.213.833-.412,1.243-.611a48.91,48.91,0,0,0,9.533-6.48,10.577,10.577,0,0,1,1-.782A1.724,1.724,0,0,1,14.051.332a3.583,3.583,0,0,1,1.723,4.036C15.2,6.116,14.5,7.835,13.811,9.54a208.348,208.348,0,0,0-7.8,22.367c-.424,1.506-.805,3.013-1.2,4.533a3.623,3.623,0,0,0-.056.412c.508-.369.974-.7,1.412-1.037A156.867,156.867,0,0,0,20.59,22.969c5.819-5.741,11.369-11.738,16.792-17.863,1.1-1.251,2.217-2.487,3.347-3.723A3.659,3.659,0,0,1,42.452.119,2.7,2.7,0,0,1,44.5.488a2.73,2.73,0,0,1,1.186,1.72,4.331,4.331,0,0,1-.24,2.572A14.468,14.468,0,0,1,42.509,9.5,42.7,42.7,0,0,1,39.19,12.78l1.469-3.823-.141-.085c-2.217,1.876-4.463,3.737-6.638,5.656-3.008,2.657-6,5.315-8.94,8.043-3.559,3.325-7.033,6.736-10.55,10.089C11.608,35.3,8.8,37.89,6.227,40.747a10.168,10.168,0,0,1-.989.924,1.828,1.828,0,0,1-2.471.114A6.1,6.1,0,0,1,.281,36.327a27.647,27.647,0,0,1,1.695-6.3c2.655-7.674,5.211-15.39,8.4-22.865a1.807,1.807,0,0,1,.1-.4Z" transform="translate(-0.003 -0.055)" fill="#fcc138"/>
              </g>
            </g>
          </g>
        </g>
        <g id="Group_20" data-name="Group 20" transform="translate(254.8 36.212)">
          <path id="Path_67" data-name="Path 67" d="M186.393,30.252a3.7,3.7,0,0,1-2.57.966,3.746,3.746,0,0,1-2.542-.966,2.794,2.794,0,0,1-.791-1.89,2.754,2.754,0,0,1,.791-1.862,3.822,3.822,0,0,1,5.112,0,2.62,2.62,0,0,1,0,3.752Z" transform="translate(-180.49 -25.52)" fill="#fcc138"/>
        </g>
        <g id="Group_21" data-name="Group 21" transform="translate(263.559 24.117)">
          <path id="Path_68" data-name="Path 68" d="M199.717,34.169a13,13,0,0,1-4.279.7,8.48,8.48,0,0,1-8.728-8.782,9.117,9.117,0,0,1,2.542-6.466,8.736,8.736,0,0,1,6.412-2.586,12.459,12.459,0,0,1,4.039.668l.184,6.494A5.371,5.371,0,0,0,196.3,22.5a3.357,3.357,0,0,0-2.471,1.052,3.651,3.651,0,0,0-.89,2.43,3.377,3.377,0,0,0,.989,2.458,3.506,3.506,0,0,0,2.514.966,4.768,4.768,0,0,0,3.432-1.606Z" transform="translate(-186.709 -17.002)"/>
          <path id="Path_69" data-name="Path 69" d="M213.814,32.116a10.426,10.426,0,0,1-14.095,0,8.7,8.7,0,0,1-2.359-6.2,8.761,8.761,0,0,1,2.359-6.167,10.426,10.426,0,0,1,14.095,0,8.7,8.7,0,0,1,2.358,6.167,8.757,8.757,0,0,1-2.358,6.2ZM204.549,23.4a3.85,3.85,0,0,0-.96,2.558,3.619,3.619,0,0,0,.96,2.529,3.269,3.269,0,0,0,4.435,0,3.578,3.578,0,0,0,.96-2.529,3.5,3.5,0,0,0-.96-2.558,3.084,3.084,0,0,0-2.217-.867,2.888,2.888,0,0,0-2.217.867Z" transform="translate(-182.319 -17.01)"/>
          <path id="Path_70" data-name="Path 70" d="M211.83,34.357l2.74-17.067H220.9l1.991,6.992a12.893,12.893,0,0,1,.381,1.975h.155a7.913,7.913,0,0,1,.325-1.975l1.991-6.992h6.285l2.768,17.067h-5.932l-.763-7.645a14.742,14.742,0,0,1-.1-1.691h-.1a13.693,13.693,0,0,1-.325,1.435l-2.514,7.9h-3.615l-2.26-7.475a6.5,6.5,0,0,1-.325-1.862h-.184c0,.327,0,.995-.028,1.336l-.833,8Z" transform="translate(-176.352 -16.892)"/>
        </g>
      </g>
    </g>
  </g>
</svg>
