<svg width="135" height="32" viewBox="700 200 600 400" xmlns="http://www.w3.org/2000/svg">
    <g fill="none" fill-rule="evenodd">
        <path fill="#F7F8FD" fill-rule="nonzero" d="M1746.315 359.455a8.688 8.688 0 0112.194 0l8.213 8.091a8.688 8.688 0 010 12.378l-70.398 69.347a8.688 8.688 0 01-12.193 0l-32.853-32.362a8.687 8.687 0 010-12.378l8.213-8.09a8.687 8.687 0 0112.194 0l18.542 18.265 56.088-55.25zM337.754 478.44h-83.71l-13.008 39.353H172l86.379-235.124h75.707l86.045 235.124h-69.37l-13.007-39.354zm-16.342-49.36l-25.346-76.707-25.68 76.707h51.026zm222.919-149.746c20.233 0 38.298 3.724 54.195 11.173 15.898 7.448 28.849 18.01 38.854 31.683 10.005 13.674 16.787 29.516 20.344 47.525h-69.036c-3.78-9.338-9.672-16.62-17.676-21.845-8.005-5.225-17.232-7.837-27.682-7.837-14.452 0-26.125 5.391-35.018 16.175-8.894 10.784-13.34 25.18-13.34 43.19 0 18.01 4.446 32.461 13.34 43.356 8.893 10.894 20.566 16.342 35.018 16.342 10.45 0 19.677-2.668 27.682-8.004 8.004-5.337 13.896-12.674 17.676-22.012h69.036c-5.336 27.57-17.954 49.526-37.853 65.868-19.9 16.342-45.08 24.513-75.54 24.513-23.346 0-43.745-5.058-61.2-15.175-17.453-10.116-30.904-24.29-40.354-42.522s-14.174-39.02-14.174-62.366c0-23.346 4.725-44.135 14.174-62.367 9.45-18.232 22.901-32.406 40.355-42.522 17.454-10.117 37.853-15.175 61.199-15.175zm334.704 2.335v52.36h-63.7v183.764h-65.368V334.03h-63.033v-52.361h192.101zm109.682 0v236.124h-65.701V281.67h65.701zM1144.964 278c22.234 0 42.523 5.17 60.866 15.508 18.343 10.339 32.795 24.735 43.356 43.19 10.561 18.454 15.842 39.243 15.842 62.366 0 23.123-5.336 43.912-16.009 62.366-10.672 18.455-25.18 32.851-43.523 43.19-18.343 10.339-38.52 15.508-60.532 15.508-22.011 0-42.244-5.17-60.698-15.508-18.455-10.339-33.018-24.735-43.69-43.19-10.673-18.454-16.009-39.243-16.009-62.366 0-23.123 5.336-43.912 16.009-62.366 10.672-18.455 25.235-32.851 43.69-43.19C1102.72 283.17 1122.953 278 1144.964 278zm0 60.699c-16.675 0-29.793 5.391-39.354 16.175-9.56 10.784-14.34 25.513-14.34 44.19 0 18.232 4.78 32.795 14.34 43.69 9.56 10.894 22.679 16.342 39.354 16.342 16.454 0 29.46-5.448 39.021-16.342 9.56-10.895 14.34-25.458 14.34-43.69 0-18.677-4.724-33.406-14.173-44.19-9.45-10.784-22.512-16.175-39.188-16.175zm373.629 179.094h-65.702l-86.712-131.736v131.736h-65.702v-235.79h65.702l86.712 133.403V282.002h65.702v235.791z"></path>
        <circle cx="1710" cy="400" r="80" fill="#F7F8FD"></circle>
        <path fill="#00C358" d="M1709 280.832c65.17 0 118 52.83 118 118s-52.83 118-118 118-118-52.83-118-118 52.83-118 118-118zm49.509 78.623a8.688 8.688 0 00-12.194 0l-56.088 55.251-18.542-18.265a8.687 8.687 0 00-12.194 0l-8.213 8.09a8.687 8.687 0 000 12.378l32.853 32.362a8.688 8.688 0 0012.193 0l70.398-69.347a8.688 8.688 0 000-12.378z"></path>
    </g>
</svg>